<svg width="103" height="16" viewBox="0 0 103 16" fill="none" xmlns="http://www.w3.org/2000/svg">
<rect width="31" height="16" rx="5" fill="#323D4D"/>
<path d="M11.3128 12H9.42001V10.6825H11.2488C11.7034 10.6825 12.0857 10.602 12.3959 10.4411C12.7084 10.2777 12.9427 10.0256 13.099 9.68466C13.2576 9.34138 13.3369 8.89867 13.3369 8.35653C13.3369 7.81913 13.2576 7.37997 13.099 7.03906C12.9427 6.69815 12.7095 6.44721 12.3994 6.28622C12.0893 6.12524 11.7069 6.04474 11.2524 6.04474H9.38805V4.72727H11.3341C12.0656 4.72727 12.6953 4.87287 13.2233 5.16406C13.7512 5.45289 14.1572 5.86837 14.4413 6.41051C14.7278 6.95265 14.871 7.60133 14.871 8.35653C14.871 9.11411 14.7278 9.76515 14.4413 10.3097C14.1572 10.8542 13.7488 11.272 13.2162 11.5632C12.6859 11.8544 12.0514 12 11.3128 12ZM10.2723 4.72727V12H8.73464V4.72727H10.2723ZM7.72612 8.61222V7.71733H11.2666V8.61222H7.72612ZM22.4269 7.27344H20.8715C20.8431 7.07221 20.7851 6.89347 20.6975 6.73722C20.6099 6.5786 20.4975 6.44366 20.3602 6.33239C20.2229 6.22112 20.0642 6.13589 19.8843 6.0767C19.7068 6.01752 19.5138 5.98793 19.3055 5.98793C18.9291 5.98793 18.6012 6.08144 18.3218 6.26847C18.0425 6.45312 17.8258 6.72301 17.672 7.07812C17.5181 7.43087 17.4411 7.85937 17.4411 8.36364C17.4411 8.8821 17.5181 9.31771 17.672 9.67045C17.8282 10.0232 18.046 10.2895 18.3254 10.4695C18.6047 10.6494 18.9279 10.7393 19.2948 10.7393C19.5008 10.7393 19.6914 10.7121 19.8666 10.6577C20.0441 10.6032 20.2016 10.5239 20.3389 10.4197C20.4762 10.3132 20.5898 10.1842 20.6798 10.0327C20.7721 9.88116 20.836 9.70833 20.8715 9.5142L22.4269 9.52131C22.3867 9.85511 22.2861 10.1771 22.1251 10.4872C21.9665 10.795 21.7522 11.0708 21.4823 11.3146C21.2148 11.5561 20.8952 11.7479 20.5235 11.8899C20.1542 12.0296 19.7364 12.0994 19.27 12.0994C18.6213 12.0994 18.0413 11.9527 17.5299 11.6591C17.0209 11.3655 16.6185 10.9406 16.3225 10.3842C16.029 9.82789 15.8822 9.15436 15.8822 8.36364C15.8822 7.57055 16.0313 6.89583 16.3296 6.33949C16.6279 5.78314 17.0328 5.35937 17.5441 5.06818C18.0555 4.77462 18.6308 4.62784 19.27 4.62784C19.6914 4.62784 20.082 4.68703 20.4419 4.8054C20.8041 4.92377 21.1249 5.09659 21.4042 5.32386C21.6836 5.54877 21.9108 5.82457 22.086 6.15128C22.2636 6.47798 22.3772 6.85204 22.4269 7.27344Z" fill="#DEE3EA"/>
<rect x="36" width="31" height="16" rx="5" fill="#323D4D"/>
<path d="M47.7962 12H45.9034V10.6825H47.7322C48.1868 10.6825 48.5691 10.602 48.8793 10.4411C49.1918 10.2777 49.4261 10.0256 49.5824 9.68466C49.741 9.34138 49.8203 8.89867 49.8203 8.35653C49.8203 7.81913 49.741 7.37997 49.5824 7.03906C49.4261 6.69815 49.1929 6.44721 48.8828 6.28622C48.5727 6.12524 48.1903 6.04474 47.7358 6.04474H45.8714V4.72727H47.8175C48.549 4.72727 49.1787 4.87287 49.7067 5.16406C50.2346 5.45289 50.6406 5.86837 50.9247 6.41051C51.2112 6.95265 51.3544 7.60133 51.3544 8.35653C51.3544 9.11411 51.2112 9.76515 50.9247 10.3097C50.6406 10.8542 50.2322 11.272 49.6996 11.5632C49.1693 11.8544 48.5348 12 47.7962 12ZM46.7557 4.72727V12H45.218V4.72727H46.7557ZM44.2095 8.61222V7.71733H47.75V8.61222H44.2095ZM56.4387 6.81889C56.4103 6.53243 56.2884 6.3099 56.073 6.15128C55.8575 5.99266 55.5652 5.91335 55.1958 5.91335C54.9449 5.91335 54.733 5.94886 54.5602 6.01989C54.3874 6.08854 54.2548 6.18442 54.1625 6.30753C54.0725 6.43063 54.0275 6.57031 54.0275 6.72656C54.0228 6.85677 54.05 6.97041 54.1092 7.06747C54.1708 7.16454 54.2548 7.24858 54.3613 7.3196C54.4679 7.38826 54.591 7.44863 54.7306 7.50071C54.8703 7.55043 55.0195 7.59304 55.1781 7.62855L55.8315 7.7848C56.1487 7.85582 56.4399 7.95052 56.7051 8.06889C56.9702 8.18726 57.1999 8.33286 57.394 8.50568C57.5881 8.6785 57.7385 8.8821 57.845 9.11648C57.9539 9.35085 58.0095 9.61955 58.0119 9.92259C58.0095 10.3677 57.8959 10.7536 57.671 11.0803C57.4484 11.4046 57.1265 11.6567 56.7051 11.8366C56.286 12.0142 55.7806 12.103 55.1887 12.103C54.6016 12.103 54.0903 12.013 53.6547 11.8331C53.2214 11.6532 52.8829 11.3868 52.639 11.0341C52.3975 10.679 52.2709 10.2398 52.2591 9.71662H53.747C53.7636 9.96046 53.8334 10.1641 53.9565 10.3274C54.082 10.4884 54.2489 10.6103 54.4572 10.6932C54.6679 10.7737 54.9058 10.8139 55.171 10.8139C55.4314 10.8139 55.6575 10.776 55.8493 10.7003C56.0434 10.6245 56.1937 10.5192 56.3002 10.3842C56.4068 10.2493 56.46 10.0942 56.46 9.91903C56.46 9.75568 56.4115 9.61837 56.3145 9.5071C56.2198 9.39583 56.0801 9.30114 55.8954 9.22301C55.7131 9.14489 55.4894 9.07386 55.2243 9.00994L54.4324 8.81108C53.8192 8.66193 53.335 8.42874 52.9799 8.11151C52.6248 7.79427 52.4484 7.36695 52.4508 6.82955C52.4484 6.3892 52.5656 6.0045 52.8024 5.67543C53.0415 5.34635 53.3694 5.08949 53.786 4.90483C54.2027 4.72017 54.6762 4.62784 55.2065 4.62784C55.7463 4.62784 56.2174 4.72017 56.6199 4.90483C57.0247 5.08949 57.3395 5.34635 57.5645 5.67543C57.7894 6.0045 57.9054 6.38565 57.9125 6.81889H56.4387Z" fill="#DEE3EA"/>
<rect x="72" width="31" height="16" rx="5" fill="#00875F"/>
<g clip-path="url(#clip0_9256_971)">
<path d="M92.8043 5.41706C92.4353 4.67908 91.8818 4.12559 91.1438 3.7566C90.4981 3.38761 89.5756 3.20311 88.6531 3.20311H87.5461V5.41706H88.4686C88.9299 5.41706 89.3911 5.50931 89.7601 5.60156C90.1291 5.78605 90.4058 6.0628 90.5903 6.43179C90.7748 6.80078 90.8671 7.35427 90.8671 8.00001C90.8671 8.64574 90.7748 9.19923 90.5903 9.56822C90.4058 9.93721 90.1291 10.214 89.7601 10.3062C89.4834 10.4907 89.0221 10.583 88.5609 10.583H87.5461V12.7969H88.6531C89.6678 12.7969 90.4981 12.6124 91.1438 12.2434C91.8818 11.8744 92.4353 11.3209 92.8043 10.583C93.1733 9.84497 93.3578 9.01473 93.3578 8.00001C93.45 6.98528 93.2655 6.15505 92.8043 5.41706Z" fill="white"/>
<path d="M87.7308 6.70855H85.3323C85.0556 6.70855 84.8711 6.52406 84.8711 6.24731C84.8711 5.97057 85.0556 5.78607 85.3323 5.78607H87.6385C87.9153 5.78607 88.0998 5.97057 88.0998 6.24731C88.0998 6.52406 87.9153 6.70855 87.7308 6.70855Z" fill="white"/>
<path d="M87.7308 10.1217H85.3323C85.1478 10.1217 84.8711 9.93722 84.8711 9.66047C84.8711 9.38373 85.0556 9.19923 85.3323 9.19923H87.6385C87.9153 9.19923 88.0998 9.38373 88.0998 9.66047C88.0998 9.93722 87.9153 10.1217 87.7308 10.1217Z" fill="white"/>
<path d="M87.7307 8.46122H82.0113C81.7345 8.46122 81.55 8.27672 81.55 7.99998C81.55 7.72324 81.7345 7.53874 82.0113 7.53874H87.7307C88.0074 7.53874 88.1919 7.72324 88.1919 7.99998C88.1919 8.27672 87.9152 8.46122 87.7307 8.46122Z" fill="white"/>
</g>
<defs>
<clipPath id="clip0_9256_971">
<rect width="11.9" height="9.59379" fill="white" transform="translate(81.55 3.20311)"/>
</clipPath>
</defs>
</svg>
