<svg width="149" height="51" viewBox="0 0 149 51" fill="none" xmlns="http://www.w3.org/2000/svg">
<rect x="35.668" y="11.5542" width="9.4866" height="29.8828" fill="#fff"/>
<rect x="7.7778" y="31.8745" width="9.5625" height="9.5625" fill="#fff"/>
<rect width="9.72666" height="34.0433" transform="matrix(0.689655 -0.724138 0.689655 0.724138 5.31134 16.6055)" fill="#fff"/>
<path d="M55.3867 40L59.0231 18.1818H62.3754L58.739 40H55.3867ZM61.7219 14.4886C61.0685 14.4886 60.5051 14.2661 60.0316 13.821C59.5676 13.3759 59.3356 12.8409 59.3356 12.2159C59.3356 11.5909 59.5676 11.0559 60.0316 10.6108C60.5051 10.1657 61.0685 9.94318 61.7219 9.94318C62.3754 9.94318 62.9341 10.1657 63.3981 10.6108C63.8716 11.0559 64.1083 11.5909 64.1083 12.2159C64.1083 12.8409 63.8716 13.3759 63.3981 13.821C62.9341 14.2661 62.3754 14.4886 61.7219 14.4886ZM64.8789 40L68.5153 18.1818H71.7539L71.1857 21.4773H71.413C71.9812 20.3977 72.8477 19.5218 74.0124 18.8494C75.1772 18.1771 76.413 17.8409 77.7198 17.8409C77.9755 17.8409 78.2833 17.8456 78.6431 17.8551C79.003 17.8551 79.2823 17.8693 79.4812 17.8977L78.913 21.3068C78.7994 21.2784 78.5437 21.2358 78.146 21.179C77.7482 21.1127 77.3221 21.0795 76.8675 21.0795C75.8069 21.0795 74.8268 21.3021 73.9272 21.7472C73.0276 22.1828 72.2747 22.7888 71.6687 23.5653C71.0626 24.3324 70.6744 25.2083 70.5039 26.1932L68.2312 40H64.8789ZM86.2035 40.5114C84.8209 40.5114 83.6088 40.2509 82.5671 39.7301C81.5254 39.1998 80.7537 38.4375 80.2518 37.4432C79.7499 36.4394 79.6126 35.2273 79.8398 33.8068C80.0576 32.5568 80.479 31.5436 81.104 30.767C81.729 29.9811 82.4866 29.3655 83.3768 28.9205C84.2764 28.4659 85.2423 28.1297 86.2745 27.9119C87.3162 27.6847 88.3531 27.5095 89.3853 27.3864C90.73 27.2159 91.8237 27.0833 92.6665 26.9886C93.5094 26.8939 94.1438 26.7377 94.57 26.5199C94.9961 26.3021 95.2565 25.928 95.3512 25.3977V25.2841C95.5785 23.892 95.3938 22.8078 94.7972 22.0312C94.2006 21.2453 93.1353 20.8523 91.6012 20.8523C90.0103 20.8523 88.6798 21.2027 87.6097 21.9034C86.5397 22.6042 85.7489 23.3523 85.2376 24.1477L82.283 23.0114C83.0595 21.6856 83.9876 20.6534 85.0671 19.9148C86.1467 19.1667 87.2783 18.6458 88.462 18.3523C89.6457 18.0492 90.7868 17.8977 91.8853 17.8977C92.5861 17.8977 93.3768 17.983 94.2575 18.1534C95.1381 18.3144 95.962 18.6506 96.729 19.1619C97.5056 19.6733 98.0879 20.4451 98.4762 21.4773C98.8739 22.5095 98.9308 23.892 98.6467 25.625L96.2603 40H92.908L93.4194 37.0455H93.2489C92.9459 37.5189 92.4819 38.0256 91.8569 38.5653C91.2414 39.1051 90.4601 39.5644 89.5131 39.9432C88.5756 40.322 87.4724 40.5114 86.2035 40.5114ZM87.1694 37.5C88.4951 37.5 89.6552 37.2396 90.6495 36.7188C91.6533 36.1979 92.4582 35.5256 93.0643 34.7017C93.6798 33.8778 94.0633 33.0114 94.2148 32.1023L94.7262 29.0341C94.5558 29.2045 94.2196 29.3608 93.7177 29.5028C93.2158 29.6354 92.6476 29.7538 92.0131 29.858C91.3881 29.9527 90.7773 30.0379 90.1808 30.1136C89.5936 30.1799 89.1201 30.2367 88.7603 30.2841C87.8701 30.3977 87.0226 30.5824 86.2177 30.8381C85.4222 31.0843 84.7499 31.4583 84.2006 31.9602C83.6609 32.4527 83.3247 33.125 83.1921 33.9773C82.9933 35.142 83.2726 36.0227 84.0302 36.6193C84.7878 37.2064 85.8342 37.5 87.1694 37.5ZM109.822 48.6364C108.193 48.6364 106.83 48.428 105.731 48.0114C104.633 47.6042 103.752 47.0644 103.089 46.392C102.426 45.7292 101.924 45.0189 101.583 44.2614L104.595 42.3864C104.822 42.7841 105.116 43.2386 105.475 43.75C105.835 44.2708 106.38 44.7206 107.109 45.0994C107.848 45.4877 108.885 45.6818 110.22 45.6818C111.972 45.6818 113.506 45.2557 114.822 44.4034C116.138 43.5511 116.953 42.2159 117.265 40.3977L117.947 35.9659H117.663C117.36 36.3636 116.939 36.8561 116.399 37.4432C115.859 38.0208 115.135 38.5369 114.225 38.9915C113.316 39.4366 112.152 39.6591 110.731 39.6591C108.96 39.6591 107.445 39.2424 106.186 38.4091C104.926 37.5758 104.022 36.3636 103.473 34.7727C102.933 33.1818 102.852 31.25 103.231 28.9773C103.6 26.7424 104.311 24.7964 105.362 23.1392C106.422 21.4725 107.729 20.1847 109.282 19.2756C110.835 18.357 112.53 17.8977 114.368 17.8977C115.788 17.8977 116.877 18.1345 117.635 18.608C118.402 19.072 118.96 19.6023 119.311 20.1989C119.661 20.786 119.926 21.2689 120.106 21.6477H120.447L121.015 18.1818H124.254L120.561 40.625C120.248 42.5 119.571 44.0246 118.529 45.1989C117.488 46.3826 116.209 47.2491 114.694 47.7983C113.179 48.357 111.555 48.6364 109.822 48.6364ZM111.583 36.6477C112.919 36.6477 114.107 36.34 115.149 35.7244C116.2 35.1089 117.071 34.2235 117.762 33.0682C118.454 31.9129 118.932 30.5303 119.197 28.9205C119.462 27.3485 119.443 25.9612 119.14 24.7585C118.837 23.5559 118.264 22.6136 117.422 21.9318C116.588 21.25 115.494 20.9091 114.14 20.9091C112.71 20.9091 111.475 21.2689 110.433 21.9886C109.401 22.7083 108.563 23.6742 107.919 24.8864C107.275 26.0985 106.83 27.4432 106.583 28.9205C106.337 30.4356 106.347 31.7756 106.612 32.9403C106.877 34.0956 107.417 35.0047 108.231 35.6676C109.055 36.321 110.172 36.6477 111.583 36.6477ZM135.845 40.4545C133.752 40.4545 132.024 39.9905 130.66 39.0625C129.297 38.125 128.345 36.8182 127.805 35.142C127.265 33.4564 127.18 31.4962 127.549 29.2614C127.919 27.0265 128.653 25.0568 129.751 23.3523C130.85 21.6383 132.218 20.303 133.856 19.3466C135.494 18.3807 137.294 17.8977 139.254 17.8977C140.39 17.8977 141.484 18.0871 142.535 18.4659C143.586 18.8447 144.495 19.4602 145.262 20.3125C146.029 21.1553 146.565 22.2727 146.868 23.6648C147.171 25.0568 147.152 26.7708 146.811 28.8068L146.583 30.2273H129.765L130.22 27.3295H143.629C143.847 26.0985 143.79 25 143.458 24.0341C143.136 23.0682 142.573 22.3059 141.768 21.7472C140.973 21.1884 139.964 20.9091 138.743 20.9091C137.483 20.9091 136.309 21.25 135.22 21.9318C134.131 22.6042 133.222 23.4564 132.493 24.4886C131.763 25.5114 131.309 26.553 131.129 27.6136L130.731 30.1136C130.447 31.9223 130.49 33.3617 130.859 34.4318C131.238 35.5019 131.896 36.2737 132.833 36.7472C133.771 37.2112 134.945 37.4432 136.356 37.4432C137.256 37.4432 138.084 37.3201 138.842 37.0739C139.6 36.8182 140.277 36.4394 140.873 35.9375C141.47 35.4261 141.972 34.7917 142.379 34.0341L145.447 34.9432C144.926 36.0417 144.192 37.0076 143.245 37.8409C142.308 38.6648 141.209 39.3087 139.95 39.7727C138.7 40.2273 137.332 40.4545 135.845 40.4545Z" fill="#fff"/>
</svg>
